<?xml version="1.0" encoding="UTF-8" standalone="no"?>
<!-- Created with Inkscape (http://www.inkscape.org/) -->

<svg
   version="1.1"
   id="svg2"
   xml:space="preserve"
   width="311.30667"
   height="311.30667"
   viewBox="0 0 311.30667 311.30667"
   sodipodi:docname="logo_kzrb.eps"
   xmlns:inkscape="http://www.inkscape.org/namespaces/inkscape"
   xmlns:sodipodi="http://sodipodi.sourceforge.net/DTD/sodipodi-0.dtd"
   xmlns="http://www.w3.org/2000/svg"
   xmlns:svg="http://www.w3.org/2000/svg"><defs
     id="defs6"><clipPath
       clipPathUnits="userSpaceOnUse"
       id="clipPath68"><path
         d="M 1166.16,805.578 754.945,1227.12 929.77,1446.93 h 472.77 l 174.83,-219.81 z"
         id="path66" /></clipPath><clipPath
       clipPathUnits="userSpaceOnUse"
       id="clipPath78"><path
         d="M 1401.31,1438.75 H 928.539 l -172.637,-220 h 818.028 z"
         id="path76" /></clipPath><clipPath
       clipPathUnits="userSpaceOnUse"
       id="clipPath94"><path
         d="m 755.902,1228.75 -2.187,-2.2 411.215,-421.261 411.21,421.121 -2.21,2.34 z"
         id="path92" /></clipPath></defs><sodipodi:namedview
     id="namedview4"
     pagecolor="#ffffff"
     bordercolor="#666666"
     borderopacity="1.0"
     inkscape:pageshadow="2"
     inkscape:pageopacity="0.0"
     inkscape:pagecheckerboard="0" /><g
     id="g8"
     inkscape:groupmode="layer"
     inkscape:label="ink_ext_XXXXXX"
     transform="matrix(1.3333333,0,0,-1.3333333,0,311.30667)"><g
       id="g10"
       transform="scale(0.1)"><path
         d="m 1957.14,2027.96 c 32.33,-6.62 64.2,-38.49 70.82,-70.82 l 17.3,-84.42 c 6.62,-32.33 35.53,-72.1 64.22,-88.39 l 74.94,-42.53 c 28.69,-16.29 49.16,-56.44 45.47,-89.24 l -9.64,-85.63 c -3.69,-32.79 11.5,-79.55 33.76,-103.92 l 58.12,-63.61 c 22.27,-24.36 29.32,-68.88 15.68,-98.93 l -35.62,-78.45 c -13.64,-30.05 -13.64,-79.23 0,-109.28 l 35.61,-78.44 c 13.64,-30.05 6.59,-74.57 -15.67,-98.941 l -58.11,-63.589 c -22.26,-24.372 -37.45,-71.129 -33.76,-103.918 l 9.63,-85.633 c 3.69,-32.797 -16.77,-72.949 -45.47,-89.239 l -74.94,-42.539 c -28.7,-16.293 -57.6,-56.082 -64.22,-88.402 l -17.31,-84.398 c -6.62,-32.332 -38.49,-64.2 -70.82,-70.832 l -84.41,-17.297 c -32.32,-6.633 -72.11,-35.532 -88.4,-64.231 l -42.53,-74.929 c -16.29,-28.704 -56.44,-49.161 -89.24,-45.473 l -85.63,9.633 c -32.79,3.687 -79.55,-11.5 -103.92,-33.7737 L 1399.4,22.6211 C 1375.03,0.359375 1330.52,-6.69141 1300.47,6.94922 L 1222.02,42.582 c -30.05,13.6368 -79.22,13.6368 -109.27,0 L 1034.3,6.96094 C 1004.25,-6.67969 959.73,0.371094 935.367,22.6289 L 871.754,80.75 c -24.367,22.262 -71.129,37.449 -103.922,33.762 l -85.613,-9.633 c -32.793,-3.688 -72.957,16.769 -89.246,45.473 l -42.539,74.929 c -16.289,28.699 -56.071,57.598 -88.399,64.231 l -84.402,17.297 c -32.328,6.632 -64.199,38.5 -70.824,70.832 l -17.297,84.398 c -6.625,32.32 -35.528,72.109 -64.223,88.402 l -74.941,42.539 c -28.7,16.29 -49.16,56.442 -45.469,89.239 l 9.629,85.621 c 3.691,32.789 -11.504,79.551 -33.7619,103.922 l -58.125,63.609 C 0.367188,959.738 -6.68359,1004.25 6.95703,1034.3 l 35.62497,78.46 c 13.6446,30.05 13.6446,79.21 -0.0039,109.26 l -35.61716,78.45 c -13.64453,30.04 -6.593752,74.56 15.66016,98.92 l 58.125,63.62 c 22.2579,24.37 37.4529,71.13 33.7659,103.92 l -9.629,85.61 c -3.688,32.8 16.777,72.96 45.472,89.25 l 74.934,42.53 c 28.695,16.29 57.598,56.07 64.223,88.39 l 17.304,84.42 c 6.625,32.33 38.497,64.2 70.825,70.82 l 84.406,17.3 c 32.328,6.63 72.109,35.53 88.398,64.22 l 42.539,74.94 c 16.289,28.7 56.45,49.16 89.243,45.48 l 85.625,-9.63 c 32.793,-3.69 79.554,11.51 103.921,33.77 l 63.582,58.1 c 24.368,22.25 68.885,29.3 98.935,15.67 l 78.46,-35.62 c 30.05,-13.64 79.22,-13.64 109.27,0.01 l 78.45,35.62 c 30.05,13.64 74.56,6.59 98.93,-15.67 l 63.61,-58.12 c 24.37,-22.26 71.13,-37.46 103.92,-33.77 l 85.63,9.64 c 32.8,3.69 72.95,-16.77 89.24,-45.47 l 42.53,-74.93 c 16.29,-28.7 56.08,-57.61 88.4,-64.23 l 84.41,-17.3"
         style="fill:#372b26;fill-opacity:1;fill-rule:nonzero;stroke:none"
         id="path12" /><path
         d="m 1167.39,397.379 c -424.581,0 -770.003,345.422 -770.003,770.001 0,424.58 345.422,770 770.003,770 424.58,0 770,-345.42 770,-770 0,-424.579 -345.42,-770.001 -770,-770.001"
         style="fill:#d7c582;fill-opacity:1;fill-rule:nonzero;stroke:none"
         id="path14" /><path
         d="m 1167.39,2187.38 c -563.324,0 -1020.003,-456.68 -1020.003,-1020 0,-563.321 456.679,-1020.001 1020.003,-1020.001 563.32,0 1020,456.68 1020,1020.001 0,563.32 -456.68,1020 -1020,1020 z m 0,-500 c 286.73,0 520,-233.27 520,-520 0,-286.732 -233.27,-520.001 -520,-520.001 -286.73,0 -520.003,233.269 -520.003,520.001 0,286.73 233.273,520 520.003,520"
         style="fill:#372b26;fill-opacity:1;fill-rule:nonzero;stroke:none"
         id="path16" /><path
         d="m 1167.39,2187.38 c -563.324,0 -1020.003,-456.68 -1020.003,-1020 0,-563.321 456.679,-1020.001 1020.003,-1020.001 563.32,0 1020,456.68 1020,1020.001 0,563.32 -456.68,1020 -1020,1020 z m 0,-440 c 319.81,0 580,-260.18 580,-580 0,-319.81 -260.19,-580.001 -580,-580.001 -319.816,0 -580.003,260.191 -580.003,580.001 0,319.82 260.187,580 580.003,580"
         style="fill:#d7c582;fill-opacity:1;fill-rule:nonzero;stroke:none"
         id="path18" /><path
         d="m 1167.39,2187.38 c -563.324,0 -1020.003,-456.68 -1020.003,-1020 0,-563.321 456.679,-1020.001 1020.003,-1020.001 563.32,0 1020,456.68 1020,1020.001 0,563.32 -456.68,1020 -1020,1020 z m 0,-400 c 341.86,0 620,-278.13 620,-620 0,-341.86 -278.14,-620.001 -620,-620.001 -341.867,0 -620.003,278.141 -620.003,620.001 0,341.87 278.136,620 620.003,620"
         style="fill:#372b26;fill-opacity:1;fill-rule:nonzero;stroke:none"
         id="path20" /><path
         d="m 1167.39,2187.38 c -563.324,0 -1020.003,-456.68 -1020.003,-1020 0,-563.321 456.679,-1020.001 1020.003,-1020.001 563.32,0 1020,456.68 1020,1020.001 0,563.32 -456.68,1020 -1020,1020 z m 0,-50 c 534.86,0 970,-435.13 970,-970 0,-534.86 -435.14,-970.001 -970,-970.001 -534.867,0 -970.003,435.141 -970.003,970.001 0,534.87 435.136,970 970.003,970"
         style="fill:#d7c582;fill-opacity:1;fill-rule:nonzero;stroke:none"
         id="path22" /><path
         d="m 2187.39,1167.38 c 0,-563.321 -456.68,-1020.001 -1020,-1020.001 -563.324,0 -1020.003,456.68 -1020.003,1020.001 0,563.32 456.679,1020 1020.003,1020 563.32,0 1020,-456.68 1020,-1020 z"
         style="fill:none;stroke:#372b26;stroke-width:40;stroke-linecap:butt;stroke-linejoin:miter;stroke-miterlimit:10;stroke-dasharray:none;stroke-opacity:1"
         id="path24" /><path
         d="m 350.367,864.961 c 12.774,19.051 33.504,48.269 53.477,75.598 5.457,7.73 5.672,11.339 3.926,15.152 L 362.172,941.25 c -21.317,-6.762 -22.344,-9.531 -17.871,-29.66 l -7.93,-2.52 -22.391,70.629 7.93,2.52 c 7.547,-17.797 9.988,-19.481 31.297,-12.719 l 95.656,30.328 c 21.563,6.842 22.332,9.542 18.016,29.172 l 7.93,2.52 22.168,-69.879 -7.93,-2.52 c -7.547,17.789 -9.668,19.301 -31.231,12.461 L 415.199,958.07 c 3.137,-4.73 8.664,-9.25 18.203,-14.41 20.313,-10.738 38.371,-18.648 53.418,-23.961 9.973,-3.937 13.039,-2.418 10.91,9.449 l -0.832,5.204 7.93,2.5 19.883,-62.692 -7.93,-2.512 c -7,16.051 -12.468,23.864 -30.41,33.993 -15.906,8.859 -33.699,17.679 -51.492,26.488 -18.449,-24.399 -38.613,-54.52 -52.668,-76.43 -9.766,-15.64 -11.356,-22.687 -9.461,-33.82 l -7.93,-2.52 -14.453,45.602"
         style="fill:#d7c582;fill-opacity:1;fill-rule:nonzero;stroke:none"
         id="path26" /><path
         d="m 541.273,773.18 -0.281,0.441 c -21.054,-4.301 -41.906,-9.402 -62.238,-13.851 l 23.547,-36.5 z m -96.777,-90.301 6.992,4.512 c 10.422,-11.84 13.821,-11.813 20.879,-2.621 5.656,7.058 13.535,17.402 21.485,28.101 l -28.055,43.481 c -9.707,-2.243 -20.195,-4.672 -30.637,-7.692 -14.187,-3.898 -16.113,-6.691 -7.781,-23.898 l -6.992,-4.524 -31.164,48.293 6.992,4.52 c 10.918,-13.082 14.933,-14.512 38.515,-9.821 l 142.012,27.879 8.828,-7.918 c -29.14,-38.3 -59.59,-77.441 -88.007,-115.902 -14.571,-19.609 -15.36,-24.148 -7.872,-39.117 l -6.992,-4.512 -38.203,59.219"
         style="fill:#d7c582;fill-opacity:1;fill-rule:nonzero;stroke:none"
         id="path28" /><path
         d="m 764.938,576.121 c -11.016,8.738 -17.54,10.008 -26.282,2.129 -6.133,-5.328 -14.851,-13.578 -30.398,-31.078 l -69.094,-77.762 -8.164,7.262 6.094,171.297 -0.379,0.34 -40.422,-45.489 c -15.547,-17.5 -22.547,-26.929 -27.137,-33.281 -7.148,-10 -6.027,-16.57 7.078,-29.609 l -5.527,-6.219 -46.844,41.629 5.528,6.219 c 11.582,-8.887 18.836,-10.118 27.382,-2.071 6.485,5.723 15.223,13.614 30.77,31.114 l 36.621,41.207 c 11.914,13.41 13.77,16.293 14.25,23.863 0.43,8.308 -2.473,13.68 -10.332,22.047 l 5.527,6.222 33.243,-29.543 -3.02,-158.027 0.586,-0.519 34.895,39.269 c 15.371,17.301 22.519,27.301 27.136,33.277 6.633,9.422 4.942,16.133 -8.359,29.34 l 5.527,6.223 46.848,-41.621 -5.527,-6.219"
         style="fill:#d7c582;fill-opacity:1;fill-rule:nonzero;stroke:none"
         id="path30" /><path
         d="m 836.703,505.379 -0.469,0.23 C 820.445,491.039 805.25,475.898 790.16,461.57 l 39.016,-19.039 z m -36.082,-127.289 3.641,7.469 c 15.051,-4.739 17.941,-2.957 19.218,8.562 1.192,8.957 2.579,21.879 3.848,35.141 l -46.492,22.679 C 773.695,445.02 765.98,437.5 758.617,429.52 748.492,418.852 748.285,415.48 764.32,405.051 l -3.652,-7.469 -51.621,25.18 3.644,7.476 c 16.094,-5.539 20.274,-4.679 38.016,11.532 l 107.051,97.3 11.652,-2.218 c -5.117,-47.832 -10.918,-97.063 -15.332,-144.641 -2.324,-24.32 -0.656,-28.609 13.496,-37.539 l -3.644,-7.473 -63.309,30.891"
         style="fill:#d7c582;fill-opacity:1;fill-rule:nonzero;stroke:none"
         id="path32" /><path
         d="m 1077.09,345.25 c -4.31,-10.801 -13.99,-34.828 -18.71,-43.691 l -133.775,27.242 -1.718,4.59 c 43.797,43.097 88.063,87.168 131.413,130.621 l -36.43,7.418 c -26.507,5.398 -31.663,3.519 -37.3,-1.969 -3.984,-3.961 -9.004,-10.371 -14.199,-21.52 l -8.105,1.911 c 4.757,18.148 10.019,36.179 13.078,48.57 l 6.367,-1.301 c 2.324,-6.851 5.078,-7.672 12.977,-9.281 l 102.952,-20.961 1,-4.188 c -43.3,-43.203 -85.83,-85.222 -129.382,-129.703 8.203,-2.726 18.293,-5.308 34.852,-8.679 24.21,-4.938 39.61,-6.207 48.2,-0.528 7.01,4.41 12.74,11.739 21.05,25.168 l 7.73,-3.699"
         style="fill:#d7c582;fill-opacity:1;fill-rule:nonzero;stroke:none"
         id="path34" /><path
         d="m 1201,428.301 -0.53,-0.031 c -6.69,-20.411 -12.58,-41.032 -18.8,-60.899 l 43.35,2.367 z m 30.47,-128.762 -0.46,8.313 c 15.45,3.179 17.11,6.136 12.62,16.828 -3.32,8.41 -8.4,20.371 -13.76,32.57 l -51.65,-2.828 c -2.86,-9.531 -5.94,-19.84 -8.49,-30.402 -3.64,-14.25 -2.18,-17.301 16.9,-18.598 l 0.45,-8.301 -57.36,-3.141 -0.46,8.301 c 16.76,3 19.99,5.789 27.6,28.59 l 46.13,137.109 11.25,3.739 c 18.82,-44.27 37.73,-90.09 57.04,-133.809 9.82,-22.371 13.36,-25.301 30.07,-26.211 l 0.45,-8.308 -70.33,-3.852"
         style="fill:#d7c582;fill-opacity:1;fill-rule:nonzero;stroke:none"
         id="path36" /><path
         d="m 1534.39,547.551 c -15.38,-8.61 -17.68,-12.801 -16.86,-35.571 0.31,-17.679 2.51,-66.89 8.09,-142.628 l -10.95,-4.153 c -27.45,32.16 -56.37,65.981 -83.55,97.41 l -0.49,-0.187 c 1.84,-43.793 3.26,-85.793 5.24,-127.031 l -10.94,-4.141 c -29.7,38.82 -58.18,75.871 -88.08,113.77 -13.2,17.25 -18.44,18.601 -33.52,15.121 l -2.95,7.781 67.38,25.488 2.94,-7.789 c -17.41,-9.09 -16.55,-12.101 -8.46,-23.223 19.92,-26.929 40,-53.527 60.47,-79.707 l 0.48,0.18 c -1.82,41.57 -3.61,84.539 -6.39,127.141 l 10.22,3.867 c 27.82,-33.129 56.28,-65.738 84.4,-98.188 l 0.49,0.188 c -1.87,34.32 -6.41,80.141 -8.56,96.84 -2.11,15.89 -4.47,19.172 -24.66,13.75 l -2.94,7.793 55.69,21.07 2.95,-7.781"
         style="fill:#d7c582;fill-opacity:1;fill-rule:nonzero;stroke:none"
         id="path38" /><path
         d="m 1615.73,578.801 -0.41,-0.313 c 6.15,-20.59 13.07,-40.898 19.31,-60.758 l 34.25,26.68 z m 98.49,-88.36 -5.11,6.559 c 10.87,11.43 10.54,14.809 0.76,21.02 -7.53,5.011 -18.53,11.929 -29.88,18.902 l -40.82,-31.793 c 3.09,-9.457 6.45,-19.688 10.39,-29.82 5.13,-13.789 8.07,-15.45 24.49,-5.629 l 5.11,-6.571 -45.33,-35.3 -5.11,6.562 c 12.06,12.027 13.12,16.16 6.35,39.219 l -40.35,138.941 7.11,9.489 c 40.72,-25.61 82.39,-52.469 123.2,-77.348 20.83,-12.793 25.41,-13.172 39.66,-4.383 l 5.11,-6.559 -55.58,-43.289"
         style="fill:#d7c582;fill-opacity:1;fill-rule:nonzero;stroke:none"
         id="path40" /><path
         d="m 1797.63,589.398 c -7.62,6.704 -8.29,17.352 -1.77,24.762 6.71,7.61 17.35,8.289 24.97,1.578 8.19,-7.207 8.67,-17.679 1.8,-25.488 -6.36,-7.211 -16.8,-8.059 -25,-0.852"
         style="fill:#d7c582;fill-opacity:1;fill-rule:nonzero;stroke:none"
         id="path42" /><path
         d="m 1835.01,749.621 c 6.05,10.02 8.93,18.309 7.7,26.34 -1.75,11.687 -8.63,20.41 -20.21,27.398 -24.05,14.512 -41.47,5.282 -49.94,-8.738 -3.63,-6.012 -4.75,-9.883 -4.35,-12.25 0.39,-2.371 2.57,-4.293 7.69,-7.383 l 54.54,-32.937 z m 122.81,38.859 c -1.08,-1.781 -2.78,-4.101 -4.39,-6.769 -15.63,-23.371 -26.67,-28.563 -46.69,-29.52 -13.7,-0.55 -30.42,0.438 -45.67,0.84 -8.74,0.11 -13.92,-1.929 -19.3,-10.832 l -3.09,-5.117 33.62,-20.301 c 18.48,-11.16 21.46,-10.23 33.38,5.969 l 7.12,-4.301 -38.59,-63.898 -7.12,4.308 c 8.79,18.082 8.35,21.379 -10.12,32.539 l -87.04,52.563 c -18.26,11.019 -21.25,10.09 -32.76,-5.441 l -7.13,4.3 36.04,59.668 c 11.15,18.481 19.88,28.403 31.13,33.453 11.39,5.278 24.82,5.368 38.62,-2.961 19.37,-11.699 22.97,-30.89 20.01,-50.371 9.06,-0.609 28.99,-0.789 43.27,-0.3 16.72,0.531 26.23,1.179 34.3,2.98 8.67,1.762 13.89,4.383 18.54,8.563 l 5.87,-5.372"
         style="fill:#d7c582;fill-opacity:1;fill-rule:nonzero;stroke:none"
         id="path44" /><path
         d="m 1960.62,902.922 c 18.13,-5.594 24.8,-2.481 29,12.008 4.73,16.218 -0.32,36.011 -25.41,43.742 -24.1,7.43 -40.35,-4.703 -49.31,-33.762 l -2.22,-7.211 z m -55.01,25.398 c 7.81,25.34 1.25,39.34 -19.36,45.692 -20.63,6.359 -34.99,-2.274 -40.35,-19.66 -1.76,-5.723 -1.9,-10.571 -0.94,-12.77 1.12,-2.523 4.13,-4.273 10.58,-6.262 l 47.7,-14.711 z m 12.74,28.981 c 11.91,26.25 29.23,41.859 53.33,34.429 16.65,-5.128 26.73,-18.3 30.06,-34.839 3.3,-14.891 0.94,-34.02 -5.34,-54.391 l -18.53,-60.121 -8.21,2.531 c 4.64,20.328 3.52,22.86 -17.35,29.301 l -96.89,29.871 c -21.11,6.508 -23.13,5.227 -30.54,-12.621 l -7.95,2.461 21.37,69.297 c 5.83,18.883 11.98,30.043 20.7,37.141 8.72,7.11 20.84,9.36 32.76,5.67 23.61,-7.268 27.26,-30.698 25.61,-48.421 l 0.98,-0.308"
         style="fill:#d7c582;fill-opacity:1;fill-rule:nonzero;stroke:none"
         id="path46" /><path
         d="m 908.883,1814.18 c -22.207,10.83 -56.418,28.66 -88.508,45.96 -9.051,4.68 -12.937,4.38 -16.746,1.95 l 22.129,-46.52 c 10.34,-21.74 13.457,-22.43 34.265,-14.7 l 3.848,-8.09 -72.051,-34.26 -3.847,8.08 c 17.863,10.67 19.297,13.52 8.957,35.26 l -46.407,97.6 c -10.468,22 -13.457,22.43 -33.769,14.94 l -3.848,8.09 71.297,33.92 3.848,-8.1 c -17.871,-10.67 -19.168,-13.14 -8.711,-35.15 l 20.683,-43.48 c 4.59,4.04 8.606,10.6 12.696,21.54 8.476,23.25 14.269,43.67 17.726,60.51 2.723,11.22 0.664,14.27 -11.691,10.25 l -5.418,-1.65 -3.848,8.1 63.965,30.42 3.848,-8.1 c -16.094,-9.82 -23.625,-16.8 -31.797,-37.44 -7.121,-18.26 -13.906,-38.54 -20.695,-58.82 28.73,-16.1 63.839,-33.2 89.277,-44.97 18.125,-8.13 25.879,-8.78 37.473,-5.13 l 3.847,-8.08 -46.523,-22.13"
         style="fill:#d7c582;fill-opacity:1;fill-rule:nonzero;stroke:none"
         id="path48" /><path
         d="m 1144.91,1916.67 c -0.51,-12.51 -1.7,-40.38 -3.32,-51.06 l -145.559,-20.35 -3.39,4.04 c 29.009,59.47 58.129,120.08 86.529,179.73 l -39.64,-5.55 c -28.84,-4.03 -33.4,-7.77 -37.15,-15.37 -2.63,-5.44 -5.423,-13.75 -6.692,-26.93 l -8.907,-0.97 c -1.687,20.12 -2.812,40.32 -4.16,53.98 l 6.934,0.97 c 4.816,-6.12 7.902,-5.96 16.495,-4.76 l 112.01,15.65 2.52,-3.88 c -28.45,-59.38 -56.53,-117.29 -84.78,-178.07 9.3,0.18 20.47,1.17 38.49,3.69 26.34,3.68 42.42,7.91 49.1,16.76 5.53,6.99 8.72,16.49 12.34,33.09 l 9.18,-0.97"
         style="fill:#d7c582;fill-opacity:1;fill-rule:nonzero;stroke:none"
         id="path50" /><path
         d="m 1273.82,1944.4 c 12.45,-1.92 21.89,-1.39 29.39,3.12 10.93,6.53 16.79,16.96 19,31.36 4.62,29.89 -11.71,43.46 -29.14,46.16 -7.48,1.15 -11.8,0.68 -13.99,-0.68 -2.2,-1.36 -3.22,-4.32 -4.2,-10.69 l -10.47,-67.81 z m 89,-106.4 c -2.22,0.34 -5.22,1.09 -8.54,1.6 -29.69,6.01 -39.36,14.86 -48.53,34.41 -6.15,13.42 -12.01,30.48 -17.86,45.84 -3.47,8.75 -7.62,13.08 -18.7,14.79 l -6.36,0.97 -6.45,-41.79 c -3.55,-22.97 -1.39,-25.57 19.61,-30.79 l -1.37,-8.87 -79.43,12.27 1.37,8.85 c 21.61,-1.35 24.71,0.44 28.26,23.41 l 16.71,108.23 c 3.5,22.7 1.36,25.29 -18.83,30.39 l 1.37,8.86 74.18,-11.44 c 22.97,-3.56 36.42,-8.18 46.07,-17.32 9.91,-9.19 15.51,-22.52 12.86,-39.68 -3.72,-24.08 -21.35,-35.52 -41.97,-40.56 3.11,-9.27 11.08,-29.2 17.42,-43.21 7.38,-16.45 11.92,-25.65 17.01,-32.96 5.31,-7.89 10.05,-12.04 16.12,-14.96 l -2.94,-8.04"
         style="fill:#d7c582;fill-opacity:1;fill-rule:nonzero;stroke:none"
         id="path52" /><path
         d="m 1503.73,1889.84 c 25.71,-12.44 41.68,-7.72 51.8,13.21 10.12,20.91 3.26,37.6 -14.38,46.14 -5.8,2.81 -10.95,3.74 -13.45,3.08 -2.86,-0.79 -5.2,-3.7 -8.38,-10.25 l -23.41,-48.39 z m -35.98,-54.45 c -8.9,-18.4 -6.67,-26.01 8.08,-32.83 16.5,-7.68 38.38,-5.51 50.7,19.95 11.82,24.45 1.55,43.73 -27.94,58 l -7.31,3.53 z m 64.77,36.17 c 26.03,-16.94 39.83,-37.93 28,-62.37 -8.17,-16.9 -23.84,-25.49 -41.98,-26.36 -16.4,-1.09 -36.38,4.53 -57.05,14.53 l -61.01,29.5 4.03,8.32 c 20.9,-8.24 23.77,-7.45 34.01,13.73 l 47.55,98.3 c 10.36,21.43 9.33,23.79 -8.48,34.59 l 3.91,8.06 70.33,-34.01 c 19.15,-9.27 30.04,-17.65 36.18,-28.08 6.16,-10.44 6.57,-23.71 0.73,-35.81 -11.59,-23.94 -37.13,-24.03 -55.73,-19.39 l -0.49,-1.01"
         style="fill:#d7c582;fill-opacity:1;fill-rule:nonzero;stroke:none"
         id="path54" /><path
         d="m 1727.21,1804.81 c 83.73,-70.56 150.49,-155.6 198.71,-249.14 l -12.05,-5.64 c -47.1,91.24 -112.15,174.24 -193.58,243.22 l 6.92,11.56 z m -54.67,-90.97 c 65.95,-58.29 119.14,-127.13 158.54,-202.41 l -12.05,-5.62 c -38.26,72.97 -89.75,139.74 -153.42,196.44 l 6.93,11.59 z m 28.93,48.14 c 49.45,-42.56 92.41,-90.52 128.58,-142.47 l -12.22,-5.72 c -34.86,49.73 -76.06,95.71 -123.29,136.6 l 6.93,11.59 z m 142.11,-235.59 -13.16,80.07 57.96,-56.78 13.17,-80.09 -57.97,56.8 z m 119.92,-345.05 c 16.02,20.63 32.09,41.29 48.15,61.91 0.15,-23.85 0.3,-47.67 0.44,-71.52 -16.03,-20.66 -32.1,-41.28 -48.16,-61.92 -0.16,23.84 -0.29,47.7 -0.43,71.53 z m -7.71,-0.07 c -16.33,20.43 -32.66,40.88 -48.97,61.31 0.14,-23.85 0.31,-47.69 0.45,-71.53 16.33,-20.44 32.64,-40.86 48.97,-61.28 -0.17,23.83 -0.32,47.67 -0.45,71.5 z m 0.65,97.16 c 12.9,22.72 25.81,45.47 38.74,68.19 3.57,-23.57 7.17,-47.16 10.74,-70.71 -12.9,-22.73 -25.83,-45.46 -38.73,-68.22 -3.57,23.58 -7.18,47.16 -10.75,70.74 z m -7.63,-1.17 c -19.09,17.88 -38.16,35.73 -57.26,53.6 3.59,-23.58 7.2,-47.15 10.75,-70.73 19.07,-17.86 38.19,-35.75 57.26,-53.6 -3.56,23.6 -7.15,47.16 -10.75,70.73 z m -11.59,96.54 c 9.55,24.35 19.1,48.68 28.63,73.02 6.93,-22.8 13.82,-45.62 20.72,-68.44 -9.49,-24.35 -19.03,-48.69 -28.56,-73.03 -6.93,22.79 -13.84,45.63 -20.79,68.45 z m -7.35,-2.24 c -21.46,14.94 -42.84,29.92 -64.32,44.85 6.91,-22.81 13.81,-45.64 20.74,-68.44 21.45,-14.95 42.89,-29.92 64.36,-44.87 -6.91,22.82 -13.84,45.63 -20.78,68.46 z m -23.62,94.48 c 5.95,25.46 11.88,50.92 17.82,76.36 10.12,-21.58 20.23,-43.17 30.35,-64.76 -5.98,-25.46 -11.9,-50.94 -17.84,-76.38 -10.13,21.58 -20.22,43.18 -30.33,64.78 z m -7.01,-3.28 c -23.34,11.73 -46.74,23.45 -70.08,35.18 10.12,-21.59 20.22,-43.19 30.35,-64.77 23.34,-11.74 46.74,-23.44 70.1,-35.18 -10.11,21.6 -20.2,43.18 -30.37,64.77 v 0"
         style="fill:#d7c582;fill-opacity:1;fill-rule:evenodd;stroke:none"
         id="path56" /><path
         d="m 607.602,1804.82 c -83.7,-70.54 -150.457,-155.59 -198.711,-249.15 l 12.043,-5.61 c 47.148,91.23 112.168,174.24 193.632,243.22 l -6.964,11.54 z m 54.66,-90.96 C 596.344,1655.59 543.168,1586.73 503.734,1511.45 l 12.063,-5.62 c 38.25,72.96 89.746,139.74 153.437,196.44 l -6.972,11.59 z M 633.355,1762 c -49.445,-42.56 -92.394,-90.53 -128.593,-142.46 l 12.254,-5.75 c 34.824,49.75 76.047,95.72 123.3,136.62 l -6.961,11.59 z m -142.101,-235.59 13.156,80.07 -57.988,-56.79 -13.137,-80.08 57.969,56.8 z M 371.363,1181.37 c -16.066,20.62 -32.129,41.28 -48.175,61.89 -0.157,-23.83 -0.301,-47.67 -0.458,-71.52 16.043,-20.65 32.129,-41.28 48.172,-61.91 0.157,23.83 0.293,47.71 0.461,71.54 z m 7.684,-0.08 c 16.34,20.45 32.648,40.87 48.965,61.33 -0.157,-23.85 -0.313,-47.71 -0.477,-71.56 -16.289,-20.43 -32.609,-40.85 -48.945,-61.29 0.156,23.83 0.312,47.71 0.457,71.52 z m -0.633,97.16 c -12.922,22.7 -25.832,45.47 -38.762,68.19 -3.593,-23.57 -7.148,-47.15 -10.742,-70.72 12.903,-22.73 25.813,-45.46 38.711,-68.2 3.625,23.56 7.199,47.15 10.793,70.73 z m 7.586,-1.18 c 19.094,17.88 38.184,35.74 57.277,53.61 -3.574,-23.56 -7.148,-47.15 -10.742,-70.72 -19.094,-17.88 -38.183,-35.75 -57.277,-53.6 3.594,23.59 7.168,47.14 10.742,70.71 z m 11.594,96.55 c -9.531,24.35 -19.082,48.7 -28.614,73.02 -6.914,-22.8 -13.839,-45.61 -20.742,-68.45 9.532,-24.33 19.043,-48.69 28.582,-73.04 6.926,22.83 13.848,45.65 20.774,68.47 z m 7.344,-2.24 c 21.453,14.95 42.89,29.9 64.363,44.85 -6.914,-22.8 -13.856,-45.61 -20.762,-68.44 -21.434,-14.96 -42.91,-29.92 -64.344,-44.87 6.903,22.82 13.848,45.65 20.743,68.46 z m 23.66,94.46 c -5.946,25.48 -11.895,50.92 -17.821,76.38 -10.136,-21.57 -20.265,-43.18 -30.363,-64.76 5.949,-25.47 11.895,-50.92 17.852,-76.39 10.109,21.59 20.226,43.2 30.332,64.77 z m 6.984,-3.26 c 23.367,11.73 46.727,23.45 70.106,35.19 -10.106,-21.6 -20.243,-43.2 -30.36,-64.78 -23.359,-11.73 -46.75,-23.46 -70.109,-35.18 10.117,21.6 20.226,43.2 30.363,64.77 v 0"
         style="fill:#d7c582;fill-opacity:1;fill-rule:evenodd;stroke:none"
         id="path58" /><path
         d="m 1166.16,841.379 377.92,387.431 -153.6,193.12 H 941.832 L 788.227,1228.81 Z M 748.285,1226.78 927.359,1451.93 H 1404.96 L 1584.03,1226.78 1166.16,798.422 748.285,1226.78"
         style="fill:#372b26;fill-opacity:1;fill-rule:nonzero;stroke:none"
         id="path60" /><g
         id="g62"><g
           id="g64"
           clip-path="url(#clipPath68)"><path
             d="m 659.32,1208.75 v 30 h 1010 v -30 h -1010"
             style="fill:#372b26;fill-opacity:1;fill-rule:nonzero;stroke:none"
             id="path70" /></g></g><g
         id="g72"><g
           id="g74"
           clip-path="url(#clipPath78)"><path
             d="m 872.984,1051.17 579.306,827.35 24.58,-17.19 -579.307,-827.36 -24.579,17.2"
             style="fill:#372b26;fill-opacity:1;fill-rule:nonzero;stroke:none"
             id="path80" /><path
             d="m 552.984,1861.33 24.579,17.19 579.307,-827.35 -24.58,-17.2 -579.306,827.36"
             style="fill:#372b26;fill-opacity:1;fill-rule:nonzero;stroke:none"
             id="path82" /><path
             d="m 1172.98,1051.17 579.31,827.35 24.58,-17.19 -579.31,-827.36 -24.58,17.2"
             style="fill:#372b26;fill-opacity:1;fill-rule:nonzero;stroke:none"
             id="path84" /><path
             d="m 852.984,1861.33 24.579,17.19 579.307,-827.35 -24.58,-17.2 -579.306,827.36"
             style="fill:#372b26;fill-opacity:1;fill-rule:nonzero;stroke:none"
             id="path86" /></g></g><g
         id="g88"><g
           id="g90"
           clip-path="url(#clipPath94)"><path
             d="m 1141.31,786.84 345.43,949.08 28.19,-10.26 -345.43,-949.078 -28.19,10.258"
             style="fill:#372b26;fill-opacity:1;fill-rule:nonzero;stroke:none"
             id="path96" /><path
             d="m 821.313,1725.66 28.183,10.26 345.434,-949.08 -28.19,-10.258 -345.427,949.078"
             style="fill:#372b26;fill-opacity:1;fill-rule:nonzero;stroke:none"
             id="path98" /></g></g></g></g></svg>
